<?xml version="1.0" encoding="UTF-8"?>
<svg id="Layer_1" data-name="Layer 1" xmlns="http://www.w3.org/2000/svg" viewBox="0 0 378.47 525.75">
  <defs>
    <style>
      .cls-1, .cls-2, .cls-3 {
        fill: #fff;
      }

      .cls-4 {
        fill: none;
      }

      .cls-4, .cls-2 {
        stroke-width: 8.61px;
      }

      .cls-4, .cls-2, .cls-3 {
        stroke: #000;
        stroke-miterlimit: 10;
      }

      .cls-2 {
        stroke-linecap: square;
      }

      .cls-3 {
        stroke-width: 6.89px;
      }

      .cls-5 {
        fill: #ccc;
      }
    </style>
  </defs>
  <path d="m59.01,417.8v-128.97l-7.1-1.86-3.59-.93.04-9.1,5.01-36.78v-.04c14.71-56.39,58.8-101.26,114.63-109.56v-5.32h42.15v4.76c55.76,8.26,99.63,53.63,114.37,109.87.04.11.07.18.07.29l5.05,38.25v7.35l-4.65,1.22-6.04,1.57v129.25l-93.56,107.95h-72.33l-94.06-107.95Z"/>
  <polygon class="cls-1" points="87.6 436.45 87.6 290.03 66.83 290.03 66.83 409.63 87.6 436.45"/>
  <path d="m321.68,283.68v.1l-4.38,1.17H60.15l-3.38-.9.03-1.79,4.72-35.42v-.03c15.43-60.57,66.8-105.05,127.72-105.05s112.11,44.37,127.61,104.8c.03.1.07.17.07.28l4.75,36.83Z"/>
  <polygon class="cls-1" points="290.86 432.66 290.86 286.24 311.63 286.24 311.63 405.84 290.86 432.66"/>
  <polygon class="cls-5" points="109.18 349.84 87.61 339.19 87.61 290.96 109.18 290.96 109.18 349.84"/>
  <polygon class="cls-5" points="269.29 346.05 290.86 336.08 290.86 290.96 269.29 290.96 269.29 346.05"/>
  <rect class="cls-1" x="107.37" y="372.65" width="163.74" height="37.19" transform="translate(580.48 202.01) rotate(90)"/>
  <polygon class="cls-1" points="276.41 417.58 290.86 400.02 290.86 432.3 275.99 453.95 276.41 417.58"/>
  <polygon class="cls-3" points="321.68 283.68 321.68 283.78 317.31 284.96 193.17 318.2 188.73 319.41 183.36 317.96 60.15 284.96 56.78 284.06 56.81 282.27 61.53 246.85 61.53 246.82 170.64 276.07 170.64 136.15 207.82 136.15 207.82 275.83 316.86 246.58 316.89 246.58 316.93 246.85 321.68 283.68"/>
  <polygon class="cls-1" points="102.05 421.37 87.6 403.81 87.6 436.09 102.47 457.74 102.05 421.37"/>
  <polygon class="cls-1" points="154.01 401.54 109.18 382.92 109.17 349.84 154.92 369.32 154.01 401.54"/>
  <polygon class="cls-1" points="154.12 512.06 118.87 470.38 118.87 421.46 153.87 465.88 154.12 512.06"/>
  <polygon class="cls-1" points="224.1 401.54 269.3 378.96 269.29 345.87 223.04 365.36 224.1 401.54"/>
  <polygon class="cls-1" points="224.34 508.1 259.59 466.42 259.59 417.5 224.1 461.91 224.34 508.1"/>
  <g>
    <path class="cls-2" d="m311.54,261.77l30.46-31.17c9.4-9.62,17.06-20.8,22.62-33.05h0c2.9-6.37,5.22-12.99,6.93-19.77l1.27-5.02c1.36-5.4,1.7-11.01.99-16.53h0c-1.39-10.78-4.9-21.18-10.32-30.59l-61.63-107.05-1.56,10.98c-.35,2.44-.34,4.91.03,7.34l10.85,71.51c.83,5.48.78,11.06-.16,16.52l-2.59,15.12c-.61,3.56-2.83,6.63-6.02,8.32l-46.26,24.55,55.4,88.84"/>
    <polygon class="cls-5" points="306.74 150.63 304.54 152.07 262.1 174.61 266.47 181.48 314.06 154.83 309.35 151.84 306.74 150.63"/>
    <path class="cls-5" d="m353.65,209.03l-4.73,6.97c-.91,1.26-6.27,7.85-7.36,8.96l-29.39,29.89-18.13-29.32,46.58-44.12,4.14,7.74,3.17,6.72,5.72,13.17Z"/>
    <path class="cls-4" d="m307.81,146.36c7.87,3.8,21.44,12.68,29.54,22.87,12.38,15.57,16.53,31.48,21.82,41.34"/>
    <polygon class="cls-5" points="319.17 147.67 320.32 145.28 320.32 141.54 320.32 136.18 319.74 127.57 319.17 121.35 317.16 111.68 313.24 92.26 316.01 113.6 316.01 118.86 315.72 122.98 311.99 143.65 319.17 147.67"/>
    <path class="cls-5" d="m305.07,32.32l52.32,91.11,4.49,8c3.78,5.35,5.47,13.18,6.81,20.43l.47,2.41c1.13,6.11.74,12.75-.83,18.77l-3.58,12.38c-.59,1.63-.93,3.08-1.78,4.88l-4.05,9.15-12.51-25.49,4.85-8.93-2.04-13.27-4.08-11.57-7.66-20.58-32.41-87.28Z"/>
  </g>
  <path class="cls-2" d="m66.93,256.16l-30.46-31.17c-9.4-9.62-17.06-20.8-22.62-33.05h0c-2.9-6.37-5.22-12.99-6.93-19.77l-1.27-5.02c-1.36-5.4-1.7-11.01-.99-16.53h0c1.39-10.78,4.9-21.18,10.32-30.59L76.62,12.98l1.56,10.98c.35,2.44.34,4.91-.03,7.34l-10.85,71.51c-.83,5.48-.78,11.06.16,16.52l2.59,15.12c.61,3.56,2.83,6.63,6.02,8.32l46.26,24.55-55.4,88.84"/>
  <polygon class="cls-5" points="71.73 145.02 73.93 146.45 116.37 168.99 112 175.87 64.41 149.21 69.13 146.23 71.73 145.02"/>
  <path class="cls-5" d="m24.82,203.41l4.73,6.97c.91,1.26,6.27,7.85,7.36,8.96l29.39,29.89,18.13-29.32-46.58-44.12-4.14,7.74-3.17,6.72-5.72,13.17Z"/>
  <path d="m323.26,282.09v.1l-4.38,1.17H61.73l-3.38-.9.03-1.79,4.72-35.42v-.03c15.43-60.57,66.8-105.05,127.72-105.05s112.11,44.37,127.61,104.8c.03.1.07.17.07.28l4.75,36.83Z"/>
  <polygon class="cls-3" points="323.26 282.09 323.26 282.2 318.89 283.37 194.76 316.61 190.31 317.82 184.94 316.37 61.73 283.37 58.36 282.47 58.39 280.68 63.11 245.26 63.11 245.23 172.22 274.48 172.22 134.57 209.4 134.57 209.4 274.24 318.44 244.99 318.47 244.99 318.51 245.26 323.26 282.09"/>
  <path class="cls-4" d="m70.66,140.75c-7.87,3.8-21.44,12.68-29.54,22.87-12.38,15.57-16.53,31.48-21.82,41.34"/>
  <polygon class="cls-5" points="59.3 142.05 58.15 139.66 58.15 135.93 58.15 130.57 58.73 121.96 59.3 115.74 61.31 106.07 65.23 86.64 62.46 107.99 62.46 113.25 62.75 117.36 66.48 138.04 59.3 142.05"/>
  <path class="cls-5" d="m73.4,26.7L21.08,117.81l-4.49,8c-3.78,5.35-5.47,13.18-6.81,20.43l-.47,2.41c-1.13,6.11-.74,12.75.83,18.77l3.58,12.38c.59,1.63.93,3.08,1.78,4.88l4.05,9.15,12.51-25.49-4.85-8.93,2.04-13.27,4.08-11.57,7.66-20.58L73.4,26.7Z"/>
  <circle cx="190.82" cy="158.34" r="7.71"/>
  <circle cx="190.82" cy="210.06" r="7.71"/>
  <circle cx="190.56" cy="261.77" r="7.71"/>
  <circle cx="81.12" cy="269.47" r="7.71"/>
  <circle cx="114.62" cy="278.92" r="7.71"/>
  <circle cx="149.05" cy="287.01" r="7.71"/>
  <circle cx="300.52" cy="269.47" r="7.71"/>
  <circle cx="267.02" cy="278.92" r="7.71"/>
  <circle cx="232.59" cy="286.64" r="7.71"/>
  <circle cx="190.82" cy="294.72" r="7.71"/>
  <circle class="cls-1" cx="132.76" cy="201.81" r="18.14"/>
  <circle cx="132.76" cy="201.81" r="7.68"/>
  <circle class="cls-1" cx="248.87" cy="201.81" r="18.14"/>
  <circle cx="248.87" cy="201.81" r="7.68"/>
  <polygon class="cls-1" points="189.24 498.72 207.96 473.12 170.52 473.12 189.24 498.72"/>
</svg>